<?xml version="1.0" encoding="utf-8"?>
<!-- Generator: Adobe Illustrator 14.0.0, SVG Export Plug-In  -->
<!DOCTYPE svg PUBLIC "-//W3C//DTD SVG 1.1//EN" "http://www.w3.org/Graphics/SVG/1.1/DTD/svg11.dtd" [
	<!ENTITY ns_flows "http://ns.adobe.com/Flows/1.0/">
]>
<svg version="1.1"
	 xmlns="http://www.w3.org/2000/svg" xmlns:xlink="http://www.w3.org/1999/xlink" xmlns:a="http://ns.adobe.com/AdobeSVGViewerExtensions/3.0/"
	 x="0px" y="0px" width="1800px" height="483px" viewBox="-0.793 0 1800 483" enable-background="new -0.793 0 1800 483"
	 xml:space="preserve">
<defs>
</defs>
<path id="path4402_2_" fill="#0D006A" d="M1426.655,380.857l58.344-298.907H1383.7l-77.252,399.035h184.853l19.062-100.128H1426.655
	z"/>
<path id="path4404_2_" fill="#0D006A" d="M1725.711,170.638c16.417,0,40.46,3.666,54.386,8.801l17.736-92.508
	c-21.548-2.491-44.27-4.981-69.631-4.981c-110.24,0-162.134,65.821-162.134,139.263c0,96.318,98.807,94.999,98.807,136.773
	c0,20.381-15.251,31.667-45.595,31.667c-22.87,0-51.894-4.985-69.631-12.605l-19.057,98.804c20.228,5.134,49.4,7.625,78.573,7.625
	c98.804,0,167.119-65.97,167.119-145.718c0-93.674-98.809-94.994-98.809-136.773
	C1677.477,183.249,1690.233,170.638,1725.711,170.638"/>
<path id="path4406_2_" fill="#0D006A" d="M1226.552,81.95c-152.019,0-249.535,113.901-249.535,253.313
	c0,86.058,45.607,146.893,162.166,146.893c45.59,0,93.675-8.796,132.959-25.361l36.798-192.479h-101.444l-22.723,117.712
	c-8.94,2.64-19.056,2.64-27.853,2.64c-50.724,0-68.461-27.853-68.461-65.816c0-68.466,41.779-140.732,129.297-140.732
	c24.042,0,50.574,5.13,74.617,11.432c2.639,1.319,5.13,2.491,7.626,2.491c7.62,3.81,15.245,6.45,20.375,8.944l21.403-103.934
	C1306.448,88.25,1264.521,81.95,1226.552,81.95"/>
<path id="path4408_2_" fill="#F7B500" d="M461.796,82.684l-27.312,132.521h188.403C466.793,446.535,156.936,407.241,74.988,311.37
	C4.449,228.694,65.388,87.377,274.506,0C67.498,63.038-48.678,228.396,19.591,339.807C96.963,466.032,338.229,518.657,552.64,457.38
	c143.294-50.284,204.455-120.941,226.796-158.91l-35.093,183.389h140.848l76.407-399.175H461.796z"/>
</svg>
